<?xml version="1.0" standalone="no"?>
<!DOCTYPE svg PUBLIC "-//W3C//DTD SVG 20010904//EN"
 "http://www.w3.org/TR/2001/REC-SVG-20010904/DTD/svg10.dtd">
<svg version="1.0" xmlns="http://www.w3.org/2000/svg"
 width="64.000000pt" height="58.000000pt" viewBox="0 0 64.000000 58.000000"
 preserveAspectRatio="xMidYMid meet">

<g transform="translate(0.000000,58.000000) scale(0.100000,-0.100000)"
fill="#000000" stroke="none">
<path d="M280 468 c-38 -63 -34 -153 9 -201 12 -14 18 -48 22 -125 l5 -107 2
98 c2 87 5 104 29 145 36 60 37 132 4 185 -28 45 -45 47 -71 5z m75 -72 c5
-30 2 -54 -10 -82 -17 -38 -18 -38 -25 -14 l-7 25 -5 -25 c-4 -24 -6 -23 -22
15 -21 46 -17 102 10 142 l17 27 18 -23 c10 -12 21 -41 24 -65z"/>
<path d="M70 347 c0 -50 49 -120 102 -146 24 -11 52 -21 61 -21 26 0 21 -30
-5 -31 l-23 0 23 -9 c12 -6 22 -18 22 -30 0 -11 5 -20 10 -20 6 0 10 29 10 68
-1 106 -40 172 -122 207 -60 25 -78 21 -78 -18z m90 -7 c43 -22 75 -61 86
-106 7 -26 6 -28 -10 -15 -14 12 -16 12 -10 -3 17 -44 -76 7 -113 63 -27 39
-30 81 -8 81 9 0 33 -9 55 -20z"/>
<path d="M485 368 c-38 -13 -90 -62 -110 -104 -17 -36 -21 -174 -5 -174 6 0
10 9 10 20 0 12 10 24 23 30 l22 9 -22 0 c-35 1 -27 28 9 35 76 15 148 98 148
169 0 30 -20 34 -75 15z m55 -28 c0 -31 -25 -74 -60 -103 -50 -42 -100 -49
-69 -10 11 14 8 14 -10 -2 l-24 -20 7 29 c11 44 43 84 84 106 49 25 72 25 72
0z"/>
</g>
</svg>
